<svg xmlns="http://www.w3.org/2000/svg" viewBox="0 0 441.56 205.5"><defs><style>.cls-1,.cls-2{fill:none;stroke:#fff200;stroke-linecap:round;stroke-miterlimit:10;}.cls-1{stroke-width:10px;}.cls-2{stroke-width:7px;}</style></defs><g id="Слой_2" data-name="Слой 2"><g id="Letters"><line class="cls-1" x1="6.32" y1="65" x2="6.32" y2="95"/><line class="cls-1" x1="6.32" y1="65" x2="76.32" y2="65"/><path class="cls-1" d="M76.32,65a145,145,0,0,1-12-20c-7.24-14.63-12.26-24.76-8-32,4.45-7.54,16.61-7.93,20-8"/><line class="cls-1" x1="76.32" y1="5" x2="206.32" y2="5"/><line class="cls-1" x1="206.32" y1="5" x2="206.32" y2="25"/><line class="cls-1" x1="206.32" y1="25" x2="166.32" y2="25"/><line class="cls-1" x1="166.32" y1="25" x2="166.32" y2="95"/><line class="cls-1" x1="166.32" y1="95" x2="136.32" y2="95"/><line class="cls-1" x1="136.32" y1="95" x2="136.32" y2="25"/><line class="cls-1" x1="136.32" y1="25" x2="96.32" y2="25"/><path class="cls-1" d="M96.32,95c2.94-.32,12.28-1.7,17-9s2.17-16.3,0-24c-1.28-4.57-2.6-7-7-16-4.07-8.35-7.44-15.5-10-21"/><line class="cls-1" x1="6.32" y1="95" x2="96.32" y2="95"/><line class="cls-1" x1="229.39" y1="6" x2="265.25" y2="6"/><line class="cls-1" x1="229.39" y1="6" x2="195.32" y2="96"/><line class="cls-1" x1="265.25" y1="6" x2="299.32" y2="96"/><line class="cls-1" x1="195.32" y1="96" x2="229.39" y2="96"/><line class="cls-1" x1="299.32" y1="96" x2="265.25" y2="96"/><line class="cls-1" x1="265.25" y1="96" x2="258.98" y2="79"/><line class="cls-1" x1="230.29" y1="96" x2="236.56" y2="79"/><line class="cls-1" x1="236.56" y1="79" x2="258.98" y2="79"/><line class="cls-2" x1="241.05" y1="52" x2="254.5" y2="52"/><line class="cls-2" x1="241.05" y1="52" x2="247.32" y2="26"/><line class="cls-2" x1="254.5" y1="52" x2="247.32" y2="26"/><line class="cls-1" x1="317.72" y1="7" x2="390.52" y2="7"/><line class="cls-2" x1="345.63" y1="27" x2="346.23" y2="41"/><line class="cls-2" x1="346.23" y1="26.5" x2="370.5" y2="26.5"/><line class="cls-2" x1="346.23" y1="41" x2="370.5" y2="41"/><path class="cls-2" d="M370.5,26.51c5.87-.47,9.94,4.25,9.7,7.86-.22,3.4-4.33,7.19-9.7,6.56"/><line class="cls-1" x1="390.22" y1="60.2" x2="399.01" y2="73.62"/><line class="cls-1" x1="399.01" y1="73.62" x2="436.56" y2="73.62"/><line class="cls-1" x1="317.72" y1="97" x2="354.12" y2="97"/><line class="cls-1" x1="354.12" y1="97" x2="354.12" y2="67.5"/><line class="cls-1" x1="354.12" y1="64.52" x2="381.73" y2="96.75"/><line class="cls-1" x1="381.73" y1="96.75" x2="436.56" y2="97"/><path class="cls-1" d="M390.52,7a24.26,24.26,0,0,1,20.54,14.48c4.14,9.76.24,19.08-.74,21.44-5.52,13.2-18.3,16.81-20.1,17.28"/><line class="cls-1" x1="436.56" y1="73.62" x2="436.56" y2="97"/><line class="cls-1" x1="317.72" y1="97" x2="317.72" y2="7"/><line class="cls-1" x1="5" y1="114.43" x2="32.71" y2="194.43"/><line class="cls-1" x1="138.12" y1="114.43" x2="110.41" y2="194.43"/><line class="cls-1" x1="32.71" y1="194.43" x2="56.63" y2="194.43"/><line class="cls-1" x1="56.63" y1="194.43" x2="70.48" y2="143.63"/><line class="cls-1" x1="86.51" y1="194.43" x2="71.56" y2="146.27"/><line class="cls-1" x1="86.51" y1="194.43" x2="110.41" y2="194.43"/><line class="cls-1" x1="5" y1="114.43" x2="32.71" y2="114.43"/><line class="cls-1" x1="32.71" y1="114.43" x2="44.67" y2="154.43"/><line class="cls-1" x1="84.34" y1="114.43" x2="56.63" y2="114.43"/><line class="cls-1" x1="56.63" y1="114.43" x2="44.67" y2="154.43"/><line class="cls-1" x1="57.7" y1="113.48" x2="85.42" y2="113.48"/><line class="cls-1" x1="85.42" y1="113.48" x2="98.46" y2="154.43"/><line class="cls-1" x1="138.13" y1="113.48" x2="110.42" y2="113.48"/><line class="cls-1" x1="110.42" y1="113.48" x2="98.46" y2="154.43"/><line class="cls-1" x1="172.68" y1="110.43" x2="210.96" y2="110.43"/><line class="cls-1" x1="172.68" y1="110.43" x2="136.32" y2="200.43"/><line class="cls-1" x1="210.96" y1="110.43" x2="247.32" y2="200.43"/><line class="cls-1" x1="136.32" y1="200.43" x2="172.68" y2="200.43"/><line class="cls-1" x1="247.32" y1="200.43" x2="210.96" y2="200.43"/><line class="cls-1" x1="210.96" y1="200.43" x2="204.26" y2="183.43"/><line class="cls-1" x1="173.64" y1="200.43" x2="180.34" y2="183.43"/><line class="cls-1" x1="180.34" y1="183.43" x2="204.26" y2="183.43"/><line class="cls-2" x1="185.12" y1="156.43" x2="199.48" y2="156.43"/><line class="cls-2" x1="185.12" y1="156.43" x2="191.82" y2="130.43"/><line class="cls-2" x1="199.48" y1="156.43" x2="191.82" y2="130.43"/><line class="cls-1" x1="262.12" y1="110.5" x2="333.35" y2="110.5"/><line class="cls-2" x1="289.42" y1="130.5" x2="290.02" y2="144.5"/><line class="cls-2" x1="290.02" y1="130" x2="313.76" y2="130"/><line class="cls-2" x1="290.02" y1="144.5" x2="313.76" y2="144.5"/><path class="cls-2" d="M313.76,130c5.75-.47,9.73,4.25,9.5,7.87-.22,3.39-4.24,7.19-9.5,6.55"/><line class="cls-1" x1="333.07" y1="163.7" x2="341.66" y2="177.12"/><line class="cls-1" x1="341.66" y1="177.12" x2="395.51" y2="177.12"/><line class="cls-1" x1="262.12" y1="200.5" x2="297.73" y2="200.5"/><line class="cls-1" x1="297.73" y1="200.5" x2="297.73" y2="171"/><line class="cls-1" x1="297.73" y1="168.02" x2="324.75" y2="200.26"/><line class="cls-1" x1="324.75" y1="200.26" x2="422.12" y2="199.5"/><path class="cls-1" d="M333.35,110.5A23.75,23.75,0,0,1,353.45,125c4.05,9.76.24,19.08-.72,21.44-5.4,13.2-17.9,16.81-19.66,17.28"/><line class="cls-1" x1="262.12" y1="200.5" x2="262.12" y2="110.5"/><path class="cls-1" d="M395.51,177.12c-2.27-3.38-5.63-8.37-9.68-14.45-5.08-7.61-7.62-11.41-8.1-12.24-4.42-7.53-12.87-21.94-7.75-31.32,5.66-10.37,24.74-8.69,25.53-8.61"/><line class="cls-1" x1="395.51" y1="110.5" x2="436.56" y2="110.5"/><line class="cls-1" x1="436.56" y1="110.5" x2="436.56" y2="130"/><line class="cls-1" x1="436.39" y1="131.89" x2="397.28" y2="131.86"/><path class="cls-1" d="M397.28,131.86c14.72,14.26,22.91,26.91,27.3,34.77,3.36,6,5.82,11.61,4.94,18.36a25.86,25.86,0,0,1-7.46,14.51"/></g></g></svg>